<svg width="24" height="40" viewBox="0 0 24 40" fill="none" xmlns="http://www.w3.org/2000/svg">
<path fill-rule="evenodd" clip-rule="evenodd" d="M13.7324 2.0003C13.7966 2.0003 13.8617 2.0003 13.9271 2.00508C13.9926 2.00986 14.0556 2.01315 14.1207 2.01882C14.1858 2.0245 14.2492 2.03405 14.3134 2.04361C14.3776 2.05317 14.4418 2.06333 14.5049 2.07618C14.5679 2.08902 14.6318 2.10306 14.6948 2.11919C14.7579 2.13533 14.8197 2.15205 14.8827 2.17057C14.9458 2.18909 15.0064 2.2103 15.0671 2.23031C15.1277 2.25033 15.1886 2.27602 15.2481 2.30052C15.3075 2.32501 15.3676 2.35189 15.4273 2.37967C15.4871 2.40745 15.5438 2.43703 15.6012 2.4672C15.6585 2.49737 15.7144 2.53023 15.7702 2.56309C15.8261 2.59595 15.8799 2.6306 15.9336 2.66674C15.9874 2.70289 16.0409 2.74023 16.0935 2.77876C16.146 2.8173 16.1962 2.85703 16.2464 2.89826C16.2966 2.93948 16.3456 2.981 16.3934 3.02551C16.4412 3.07002 16.489 3.11274 16.5347 3.15964C16.5804 3.20654 16.6243 3.25164 16.6688 3.29943C16.7133 3.34723 16.7539 3.39652 16.796 3.44671C16.8382 3.49689 16.8764 3.54827 16.9155 3.60054C16.9547 3.65282 16.9914 3.7057 17.0275 3.75947C17.0637 3.81324 17.0986 3.8679 17.1315 3.92376C17.1644 3.97962 17.1966 4.03578 17.2271 4.09314C17.2576 4.15049 17.2868 4.20755 17.3146 4.26699C17.3424 4.32644 17.3696 4.38469 17.3941 4.44443C17.4186 4.50418 17.4419 4.56391 17.464 4.62635C17.4861 4.68878 17.5061 4.74882 17.5237 4.81066C17.5414 4.87249 17.5599 4.93552 17.5763 4.99736C17.5927 5.05919 17.6062 5.12462 17.6181 5.18765C17.6301 5.25068 17.6429 5.3149 17.6522 5.37883C17.6614 5.44275 17.6695 5.50728 17.6755 5.5727C17.6815 5.63812 17.6871 5.70114 17.6895 5.76627C17.6919 5.83139 17.694 5.89592 17.694 5.96014V33.9861C17.6944 34.1421 17.6855 34.298 17.6674 34.453C17.649 34.6077 17.6213 34.7613 17.5844 34.9127C17.5482 35.0646 17.503 35.2142 17.449 35.3608C17.3952 35.5072 17.3325 35.6501 17.2612 35.7888C17.2023 35.9044 17.1377 36.017 17.0676 36.1261C16.9974 36.2345 16.9227 36.3409 16.8423 36.4424C16.762 36.544 16.6765 36.642 16.5866 36.7352C16.4968 36.8292 16.4022 36.9184 16.3032 37.0025C16.2048 37.087 16.102 37.1661 15.9952 37.2394C15.8893 37.3139 15.7796 37.3828 15.6666 37.4458C15.5534 37.5089 15.4369 37.5671 15.3189 37.6185C15.2001 37.6708 15.0787 37.7168 14.955 37.7562C14.8317 37.797 14.7063 37.8309 14.5792 37.8578C14.4528 37.8856 14.3249 37.9071 14.1963 37.922C14.0669 37.9372 13.9373 37.9465 13.8079 37.9489C13.6786 37.9513 13.549 37.9489 13.4196 37.9372C13.1611 37.9158 12.9051 37.8701 12.6552 37.8007C12.5303 37.7646 12.4078 37.7237 12.2866 37.6759C12.1656 37.6287 12.0472 37.5753 11.9317 37.516L8.15825 35.5905C8.07759 35.5496 7.99813 35.5054 7.92136 35.4588C7.84459 35.4122 7.76722 35.3632 7.69254 35.3094C7.61786 35.2556 7.54557 35.2031 7.47448 35.146C7.40338 35.0889 7.33557 35.0304 7.26896 34.9686C7.20234 34.9067 7.13842 34.8425 7.07539 34.7771C7.01236 34.7117 6.95381 34.643 6.89616 34.5731C6.83851 34.5031 6.78413 34.4306 6.73156 34.3559C6.67898 34.2812 6.6291 34.2065 6.5822 34.1295C6.5353 34.0524 6.4902 33.9732 6.44927 33.8929C6.40835 33.8125 6.36772 33.7307 6.33158 33.6476C6.29543 33.5646 6.26138 33.4797 6.23121 33.3946C6.20103 33.3095 6.17146 33.2228 6.14816 33.1353C6.12486 33.0478 6.10156 32.9594 6.08304 32.8707C6.06452 32.7819 6.04899 32.6932 6.03734 32.6033C6.02569 32.5134 6.01523 32.4226 6.00925 32.3326C6.00328 32.2427 6 32.1507 6 32.0608V7.84865C6 7.75903 6.00238 7.66673 6.00925 7.57562C6.01612 7.48451 6.0245 7.39369 6.03734 7.30259C6.05018 7.21148 6.06541 7.12186 6.08513 7.03374C6.10484 6.94562 6.12486 6.85451 6.15055 6.76758C6.17624 6.68065 6.20312 6.59253 6.23449 6.5062C6.26585 6.41987 6.29992 6.33473 6.33606 6.25169C6.37221 6.16864 6.41313 6.08619 6.45555 6.00434C6.49796 5.9225 6.54516 5.84453 6.59206 5.76537C6.63896 5.68621 6.69004 5.61153 6.74351 5.53804C6.79698 5.46456 6.85344 5.39107 6.91169 5.32087C6.96994 5.25067 7.03118 5.18197 7.09361 5.11565C7.15604 5.04933 7.22206 4.98601 7.28987 4.92417C7.35768 4.86234 7.42638 4.80289 7.49897 4.74673C7.57156 4.69058 7.64475 4.63472 7.71943 4.58334C7.79411 4.53196 7.87238 4.48207 7.95064 4.43636C8.02891 4.39066 8.11045 4.34675 8.192 4.30463L11.9645 2.41761C12.102 2.34986 12.243 2.28953 12.3869 2.23688C12.5309 2.18457 12.6778 2.14089 12.8269 2.10605C12.9758 2.07093 13.1267 2.0445 13.2786 2.02688C13.4308 2.00914 13.5839 2.00017 13.7372 2L13.7324 2.0003ZM13.7324 2.37728C13.4549 2.37764 13.1785 2.41012 12.9085 2.47407C12.7737 2.50562 12.6409 2.54492 12.5106 2.59177C12.3805 2.63949 12.2531 2.69444 12.1291 2.75636L8.3554 4.64338C8.28192 4.67952 8.20933 4.71925 8.13824 4.76107C8.06714 4.8029 7.99694 4.8474 7.92913 4.8943C7.86132 4.9412 7.795 4.99108 7.72958 5.04366C7.66416 5.09623 7.60233 5.14851 7.54169 5.20467C7.48105 5.26083 7.4222 5.31789 7.36425 5.37733C7.3063 5.43678 7.25223 5.49981 7.19996 5.56284C7.14768 5.62587 7.096 5.69218 7.0482 5.7588C7.00041 5.82541 6.95351 5.89531 6.91049 5.96551C6.86748 6.03571 6.82536 6.1077 6.78682 6.18119C6.74829 6.25468 6.71334 6.32816 6.67929 6.40404C6.64523 6.47991 6.61536 6.55698 6.58728 6.63524C6.5592 6.71351 6.53351 6.79147 6.5114 6.87093C6.4893 6.95039 6.46929 7.03075 6.45166 7.10991C6.43404 7.18907 6.41999 7.27211 6.40834 7.35516C6.39669 7.4382 6.38863 7.51856 6.38265 7.60131C6.37668 7.68405 6.37459 7.7671 6.37459 7.84865V32.0626C6.37459 32.1442 6.37698 32.226 6.38265 32.3076C6.38833 32.3891 6.39669 32.4722 6.40834 32.5525C6.41999 32.6329 6.43404 32.7147 6.45047 32.7954C6.4669 32.876 6.48661 32.9552 6.51021 33.0344C6.53381 33.1135 6.558 33.1918 6.58489 33.2688C6.61177 33.3459 6.64464 33.4227 6.67451 33.4974C6.70438 33.572 6.74321 33.6467 6.78055 33.7193C6.81789 33.7919 6.85882 33.8639 6.90213 33.9338C6.94545 34.0037 6.99175 34.0727 7.03745 34.1393C7.08316 34.2059 7.13543 34.271 7.18681 34.3341C7.23819 34.3971 7.29286 34.4601 7.34902 34.5196C7.40518 34.579 7.46313 34.6376 7.52377 34.6922C7.58441 34.7469 7.64535 34.8022 7.70957 34.8533C7.7738 34.9043 7.83892 34.9548 7.90673 35.0026C7.97454 35.0504 8.04324 35.0922 8.11314 35.1367C8.18304 35.1813 8.25564 35.2183 8.32793 35.2562L12.1029 37.1806C12.2077 37.2341 12.3152 37.2818 12.4237 37.3252C12.5329 37.3681 12.6443 37.4055 12.7573 37.4372C12.8706 37.4697 12.985 37.4969 13.1006 37.5166C13.2159 37.5376 13.3323 37.5528 13.4492 37.562C13.566 37.5713 13.6828 37.5749 13.8005 37.5725C13.9182 37.5701 14.035 37.562 14.1518 37.548C14.2682 37.534 14.3839 37.514 14.4983 37.4883C14.613 37.4643 14.7263 37.4344 14.8379 37.3986C14.95 37.3625 15.0596 37.3204 15.1665 37.2738C15.2735 37.2272 15.3789 37.1746 15.4817 37.1176C15.5844 37.0605 15.6836 36.9981 15.7804 36.9309C15.8772 36.8636 15.9695 36.7919 16.0582 36.7161C16.1469 36.6402 16.2333 36.5586 16.3148 36.4744C16.3964 36.3903 16.4736 36.3019 16.546 36.2097C16.6191 36.1177 16.6872 36.0219 16.75 35.9227C16.8131 35.8244 16.8713 35.7219 16.9251 35.618C16.9893 35.4919 17.0462 35.3623 17.0954 35.2296C17.1446 35.0974 17.1856 34.9622 17.2181 34.8249C17.2506 34.6878 17.2755 34.5491 17.2928 34.4094C17.309 34.2691 17.3172 34.1281 17.3173 33.987V5.96103C17.3173 5.90129 17.3173 5.84423 17.3125 5.78598C17.3078 5.72773 17.3057 5.66799 17.2997 5.60974C17.2937 5.55149 17.2868 5.49294 17.2788 5.43588C17.2707 5.37883 17.26 5.31908 17.2489 5.26203C17.2378 5.20497 17.2244 5.14762 17.2104 5.09056C17.1963 5.03351 17.1805 4.97735 17.1638 4.92119C17.147 4.86503 17.1276 4.80917 17.1079 4.7545C17.0882 4.69984 17.067 4.64368 17.0449 4.58991C17.0228 4.53614 16.9992 4.48147 16.9735 4.4289C16.9478 4.37632 16.9221 4.32374 16.8943 4.27117C16.8665 4.21859 16.8382 4.16871 16.808 4.11853C16.7778 4.06834 16.7462 4.01935 16.7133 3.96917C16.6804 3.91898 16.647 3.87208 16.6117 3.82428C16.5765 3.77649 16.5418 3.73108 16.5045 3.68657C16.4671 3.64206 16.4286 3.59696 16.3889 3.55246C16.3492 3.50795 16.3097 3.46731 16.2676 3.42519C16.2255 3.38307 16.1837 3.34365 16.1404 3.30392C16.097 3.26419 16.0528 3.22684 16.0074 3.1895C15.962 3.15216 15.9151 3.11602 15.8685 3.08107C15.8219 3.04612 15.7741 3.01237 15.7251 2.97951C15.6761 2.94665 15.626 2.91528 15.5758 2.88511C15.5256 2.85494 15.4742 2.82537 15.4228 2.79878C15.3714 2.7722 15.3189 2.74501 15.2654 2.71932C15.2119 2.69363 15.1591 2.67033 15.1053 2.64823C15.0515 2.62612 14.9957 2.60491 14.941 2.5852C14.8863 2.56548 14.8302 2.54666 14.774 2.53023C14.7178 2.5138 14.6608 2.49767 14.6037 2.48244C14.5467 2.4672 14.4905 2.45555 14.4323 2.4439C14.374 2.43225 14.3167 2.42299 14.2593 2.41403C14.202 2.40507 14.1428 2.3976 14.0843 2.39162C14.0257 2.38565 13.9678 2.38236 13.9095 2.37878C13.8513 2.37519 13.7915 2.3743 13.7333 2.3743L13.7324 2.37728ZM9.95863 7.84865L13.7324 5.96193V33.9879L9.95863 32.0626V7.84865Z" fill="#0066FF"/>
</svg>
