<svg width="116" height="354" viewBox="0 0 116 354" fill="none" xmlns="http://www.w3.org/2000/svg">
<path fill-rule="evenodd" clip-rule="evenodd" d="M76.7021 0.00296235C77.3392 0.00296235 77.9852 0.0029365 78.6341 0.0500009C79.283 0.0970652 79.9083 0.129482 80.5543 0.185371C81.2003 0.24126 81.8284 0.335322 82.4655 0.429451C83.1026 0.52358 83.7397 0.623617 84.3649 0.750103C84.9901 0.876588 85.6243 1.01488 86.2495 1.17372C86.8748 1.33256 87.4881 1.49728 88.1134 1.67965C88.7386 1.86203 89.3401 2.07082 89.9417 2.2679C90.5432 2.46498 91.1476 2.718 91.7373 2.95921C92.327 3.20041 92.9226 3.4651 93.5153 3.73866C94.1079 4.01223 94.6709 4.30343 95.2398 4.60053C95.8088 4.89762 96.3629 5.22123 96.917 5.5448C97.4711 5.86837 98.0045 6.20954 98.5379 6.56546C99.0713 6.92139 99.6017 7.28908 100.123 7.66853C100.645 8.04799 101.143 8.43929 101.64 8.84522C102.138 9.25115 102.624 9.66 103.098 10.0983C103.572 10.5366 104.046 10.9572 104.5 11.419C104.953 11.8809 105.389 12.325 105.83 12.7956C106.272 13.2663 106.675 13.7517 107.093 14.2458C107.51 14.74 107.89 15.2459 108.278 15.7607C108.666 16.2755 109.03 16.7961 109.389 17.3256C109.748 17.8551 110.094 18.3934 110.42 18.9434C110.746 19.4935 111.066 20.0465 111.368 20.6113C111.671 21.1761 111.961 21.7379 112.237 22.3233C112.512 22.9086 112.782 23.4822 113.025 24.0705C113.268 24.6588 113.499 25.2471 113.718 25.8618C113.938 26.4766 114.136 27.0679 114.311 27.6768C114.486 28.2857 114.669 28.9063 114.832 29.5152C114.995 30.1241 115.129 30.7684 115.247 31.3891C115.366 32.0097 115.493 32.6421 115.585 33.2716C115.677 33.9011 115.757 34.5365 115.816 35.1807C115.875 35.8249 115.932 36.4455 115.955 37.0867C115.979 37.728 116 38.3634 116 38.9958V314.969C116.004 316.506 115.916 318.041 115.736 319.567C115.554 321.091 115.279 322.603 114.912 324.094C114.553 325.59 114.105 327.063 113.57 328.506C113.036 329.948 112.414 331.356 111.706 332.722C111.123 333.86 110.482 334.968 109.786 336.043C109.09 337.11 108.349 338.158 107.552 339.158C106.755 340.158 105.907 341.123 105.015 342.04C104.125 342.966 103.186 343.844 102.203 344.673C101.228 345.504 100.208 346.283 99.1483 347.006C98.0981 347.739 97.0101 348.417 95.8887 349.038C94.7657 349.659 93.6101 350.232 92.4396 350.738C91.2614 351.253 90.0567 351.706 88.8305 352.094C87.6074 352.496 86.363 352.83 85.1028 353.095C83.848 353.369 82.5801 353.58 81.3039 353.727C80.0209 353.877 78.7349 353.968 77.4518 353.992C76.1688 354.015 74.8827 353.992 73.5996 353.877C71.0351 353.666 68.4963 353.216 66.0169 352.533C64.7782 352.177 63.5633 351.774 62.3603 351.303C61.1605 350.839 59.9856 350.313 58.84 349.729L21.409 330.768C20.6089 330.365 19.8207 329.93 19.0592 329.471C18.2976 329.012 17.5302 328.53 16.7894 328C16.0486 327.471 15.3315 326.953 14.6262 326.391C13.921 325.83 13.2484 325.253 12.5876 324.644C11.9268 324.035 11.2926 323.403 10.6674 322.759C10.0422 322.114 9.46146 321.438 8.88957 320.75C8.31767 320.061 7.7783 319.346 7.25677 318.611C6.73525 317.876 6.2404 317.14 5.77518 316.381C5.30996 315.622 4.86259 314.843 4.45663 314.052C4.05067 313.26 3.64764 312.454 3.2891 311.637C2.93055 310.819 2.59275 309.984 2.29347 309.145C1.99419 308.307 1.70079 307.454 1.46966 306.592C1.23853 305.73 1.00744 304.859 0.823721 303.986C0.640003 303.112 0.485963 302.239 0.370399 301.353C0.254834 300.468 0.15105 299.573 0.0917858 298.688C0.032522 297.803 0 296.897 0 296.011V57.5921C0 56.7097 0.0236324 55.8007 0.0917858 54.9036C0.159939 54.0064 0.242981 53.1122 0.370399 52.215C0.497816 51.3178 0.648859 50.4354 0.844429 49.5676C1.04 48.6999 1.23861 47.8028 1.49344 46.9468C1.74827 46.0908 2.01489 45.223 2.32602 44.3729C2.63716 43.5228 2.97504 42.6844 3.33359 41.8667C3.69213 41.049 4.09807 40.2371 4.51885 39.4311C4.93962 38.6251 5.4078 37.8574 5.87302 37.0779C6.33825 36.2984 6.84492 35.563 7.37533 34.8394C7.90574 34.1158 8.46575 33.3922 9.04357 32.7009C9.62139 32.0097 10.2289 31.3331 10.8482 30.6801C11.4675 30.027 12.1224 29.4035 12.795 28.7946C13.4677 28.1857 14.1492 27.6003 14.8692 27.0473C15.5893 26.4943 16.3153 25.9443 17.0561 25.4383C17.7969 24.9324 18.5733 24.4411 19.3496 23.9911C20.126 23.541 20.9349 23.1086 21.7438 22.6938L59.1659 4.11228C60.5295 3.44508 61.9282 2.85099 63.3559 2.33263C64.7838 1.81751 66.2412 1.38732 67.7206 1.04427C69.1976 0.69848 70.6936 0.438164 72.201 0.264726C73.7109 0.0900063 75.2295 0.00162549 76.7496 0L76.7021 0.00296235ZM76.7021 3.71514C73.95 3.71863 71.2076 4.03846 68.5296 4.66821C67.1926 4.97885 65.8748 5.36585 64.5827 5.82721C63.2919 6.29715 62.0286 6.83824 60.7986 7.44797L23.3647 26.0295C22.6357 26.3855 21.9157 26.7767 21.2105 27.1885C20.5052 27.6003 19.8089 28.0386 19.1362 28.5004C18.4636 28.9622 17.8057 29.4535 17.1568 29.9712C16.5079 30.4889 15.8945 31.0036 15.293 31.5567C14.6914 32.1097 14.1077 32.6715 13.5328 33.2569C12.958 33.8422 12.4217 34.4629 11.9031 35.0835C11.3846 35.7042 10.8719 36.3573 10.3977 37.0132C9.92364 37.6692 9.45842 38.3574 9.03172 39.0487C8.60502 39.74 8.18721 40.4489 7.80496 41.1725C7.42271 41.8961 7.07606 42.6198 6.73825 43.3669C6.40045 44.1141 6.10409 44.8729 5.82555 45.6436C5.54701 46.4143 5.29218 47.182 5.07291 47.9645C4.85363 48.7469 4.65515 49.5382 4.48032 50.3177C4.30549 51.0972 4.16617 51.9149 4.0506 52.7327C3.93504 53.5504 3.85504 54.3417 3.79577 55.1565C3.73651 55.9713 3.71583 56.7891 3.71583 57.5921V296.029C3.71583 296.832 3.73947 297.638 3.79577 298.441C3.85207 299.244 3.93504 300.062 4.0506 300.853C4.16617 301.644 4.3055 302.45 4.46848 303.245C4.63145 304.039 4.82697 304.818 5.06106 305.598C5.29515 306.377 5.53517 307.148 5.80186 307.907C6.06854 308.666 6.39455 309.422 6.69087 310.157C6.98719 310.893 7.37234 311.628 7.74274 312.343C8.11314 313.058 8.51914 313.766 8.9488 314.455C9.37846 315.143 9.83776 315.823 10.2911 316.478C10.7445 317.134 11.2631 317.776 11.7727 318.396C12.2824 319.017 12.8247 319.638 13.3817 320.223C13.9388 320.808 14.5136 321.385 15.1152 321.923C15.7167 322.462 16.3212 323.006 16.9583 323.509C17.5954 324.012 18.2414 324.509 18.914 324.979C19.5867 325.45 20.2681 325.862 20.9615 326.3C21.6549 326.739 22.375 327.103 23.0921 327.477L60.5379 346.426C61.578 346.953 62.6448 347.423 63.7204 347.85C64.8042 348.273 65.9088 348.641 67.0302 348.953C68.1533 349.274 69.2882 349.541 70.435 349.735C71.5793 349.942 72.7334 350.091 73.893 350.182C75.0516 350.274 76.2102 350.309 77.3777 350.285C78.5452 350.262 79.7039 350.182 80.8625 350.044C82.0175 349.906 83.1647 349.71 84.2997 349.456C85.4374 349.22 86.562 348.925 87.6689 348.573C88.7801 348.218 89.8675 347.803 90.9283 347.344C91.9892 346.885 93.0352 346.367 94.0546 345.805C95.0739 345.244 96.0577 344.629 97.0178 343.967C97.9778 343.305 98.8934 342.599 99.7735 341.852C100.654 341.105 101.51 340.302 102.319 339.472C103.129 338.644 103.894 337.774 104.612 336.866C105.337 335.96 106.013 335.017 106.636 334.039C107.262 333.072 107.839 332.063 108.373 331.039C109.01 329.798 109.574 328.521 110.062 327.215C110.55 325.913 110.957 324.582 111.28 323.229C111.601 321.88 111.848 320.514 112.02 319.138C112.181 317.757 112.263 316.368 112.263 314.978V39.0046C112.263 38.4163 112.263 37.8545 112.216 37.2809C112.169 36.7073 112.148 36.119 112.089 35.5454C112.029 34.9718 111.961 34.3953 111.881 33.8334C111.801 33.2716 111.694 32.6833 111.585 32.1215C111.475 31.5596 111.342 30.9949 111.203 30.433C111.063 29.8712 110.906 29.3182 110.74 28.7652C110.574 28.2122 110.382 27.6621 110.186 27.1238C109.991 26.5855 109.78 26.0325 109.561 25.503C109.342 24.9736 109.108 24.4353 108.853 23.9176C108.598 23.3999 108.343 22.8821 108.068 22.3644C107.792 21.8467 107.51 21.3555 107.211 20.8613C106.912 20.3671 106.598 19.8847 106.272 19.3906C105.946 18.8964 105.614 18.4345 105.264 17.9639C104.915 17.4932 104.571 17.0461 104.2 16.6078C103.83 16.1695 103.448 15.7254 103.054 15.2872C102.66 14.8489 102.268 14.4487 101.851 14.034C101.433 13.6192 101.018 13.231 100.588 12.8398C100.159 12.4486 99.7201 12.0808 99.2697 11.7131C98.8193 11.3454 98.3541 10.9896 97.8919 10.6454C97.4296 10.3013 96.9555 9.96889 96.4696 9.64532C95.9836 9.32175 95.4858 9.01286 94.988 8.71577C94.4902 8.41868 93.9804 8.12746 93.4708 7.86567C92.9611 7.60387 92.4396 7.33622 91.9092 7.08325C91.3788 6.83028 90.8543 6.60082 90.3209 6.38314C89.7876 6.16547 89.2335 5.95663 88.6912 5.76249C88.1489 5.56835 87.5918 5.38297 87.0347 5.22119C86.4776 5.0594 85.9117 4.90064 85.3457 4.75062C84.7797 4.6006 84.2227 4.4858 83.6449 4.37108C83.0671 4.25636 82.4981 4.16525 81.9292 4.077C81.3602 3.98875 80.7735 3.91518 80.1927 3.85635C79.612 3.79752 79.0371 3.76517 78.4593 3.72987C77.8815 3.69457 77.2889 3.68579 76.711 3.68579L76.7021 3.71514ZM39.2681 57.5921L76.7021 39.0134V314.987L39.2681 296.029V57.5921Z" fill="white"/>
</svg>
