<svg width="110" height="40" viewBox="0 0 110 40" fill="none" xmlns="http://www.w3.org/2000/svg">
<path d="M24.8287 32.5188C24.4015 32.5177 23.992 32.3474 23.6898 32.0453C23.3877 31.7432 23.2175 31.3337 23.2163 30.9064V8.78062C23.2227 8.35469 23.3945 7.94793 23.6954 7.64645C23.9964 7.34496 24.4028 7.17241 24.8287 7.16528C25.2563 7.1672 25.6658 7.33808 25.9678 7.64068C26.2699 7.94329 26.44 8.35306 26.4412 8.78062V30.9064C26.443 31.1187 26.4026 31.3291 26.3222 31.5256C26.2418 31.7221 26.1231 31.9006 25.973 32.0507C25.8229 32.2008 25.6444 32.3195 25.448 32.3998C25.2515 32.4802 25.041 32.5207 24.8287 32.5188Z" fill="#0066FF"/>
<path d="M44.6979 33.0661C42.9234 33.0682 41.1674 32.7059 39.5386 32.0016C37.9609 31.3352 36.5261 30.3716 35.3124 29.1633C34.1157 27.9526 33.1532 26.5312 32.4734 24.9705C31.7967 23.368 31.4464 21.6467 31.443 19.9072C31.4383 18.1521 31.8009 16.4155 32.5076 14.809C33.1859 13.2501 34.1604 11.8378 35.3771 10.6504C36.5901 9.44217 38.0241 8.47855 39.6011 7.8121C41.2477 7.12937 43.0128 6.77823 44.7952 6.77881C47.3688 6.78544 49.8825 7.55536 52.0183 8.99114C54.1541 10.4269 55.816 12.464 56.7937 14.8446C57.4624 16.4487 57.8022 18.1708 57.7928 19.9087C57.8016 23.37 56.4464 26.6954 54.0208 29.1647C52.8067 30.4055 51.356 31.39 49.7547 32.0601C48.1533 32.7303 46.4338 33.0723 44.6979 33.0661ZM44.7945 10.0037C43.4451 10.0016 42.1084 10.2648 40.8604 10.7783C39.6539 11.2806 38.5576 12.0146 37.6334 12.9386C36.7006 13.8303 35.9648 14.9073 35.473 16.1003C34.9321 17.296 34.6572 18.5949 34.6672 19.9072C34.6669 21.2053 34.9265 22.4904 35.4305 23.6867C35.9346 24.883 36.6729 25.9663 37.6021 26.8729C38.7462 28.044 40.163 28.9131 41.7255 29.4023C43.288 29.8914 44.9474 29.9854 46.5551 29.6758C48.1628 29.3662 49.6687 28.6626 50.9377 27.6282C52.2068 26.5937 53.1994 25.2606 53.8268 23.7483C54.3131 22.5272 54.5646 21.2252 54.5679 19.9108C54.5864 17.3088 53.5774 14.8046 51.7602 12.9423C50.858 12.0073 49.7756 11.2651 48.5783 10.7606C47.381 10.2561 46.0937 9.99984 44.7945 10.0073V10.0037Z" fill="#0066FF"/>
<path d="M79.5312 7.16528H62.1454C61.7174 7.16528 61.3069 7.33532 61.0042 7.63798C60.7015 7.94064 60.5315 8.35113 60.5315 8.77916C60.5315 9.20719 60.7015 9.6177 61.0042 9.92036C61.3069 10.223 61.7174 10.3931 62.1454 10.3931H69.2418V30.9064C69.24 31.1187 69.2805 31.3291 69.3608 31.5256C69.4412 31.7221 69.5599 31.9006 69.71 32.0507C69.8601 32.2008 70.0386 32.3195 70.2351 32.3998C70.4315 32.4802 70.642 32.5207 70.8543 32.5188C71.2815 32.5177 71.6909 32.3474 71.9929 32.0452C72.295 31.7431 72.465 31.3336 72.466 30.9064V10.3952H79.5312C79.9592 10.3952 80.3698 10.2252 80.6724 9.92253C80.9751 9.61987 81.1451 9.20938 81.1451 8.78135C81.1451 8.35332 80.9751 7.94281 80.6724 7.64015C80.3698 7.33749 79.9592 7.16746 79.5312 7.16746V7.16528Z" fill="#0066FF"/>
<path d="M83.2412 32.5174C82.8917 32.5196 82.5513 32.4059 82.2733 32.194C81.9702 31.9712 81.7554 31.6488 81.6666 31.2833C81.5779 30.9178 81.6208 30.5327 81.7879 30.1957L92.5292 8.06849C92.6657 7.7992 92.8733 7.57238 93.1294 7.41265C93.3856 7.25292 93.6806 7.16636 93.9825 7.16236C94.2854 7.1619 94.5822 7.24663 94.8392 7.40686C95.0962 7.56709 95.3029 7.79636 95.4358 8.06849L106.239 30.1587C106.427 30.5441 106.454 30.9885 106.315 31.3941C106.176 31.7997 105.881 32.1333 105.495 32.3215C105.11 32.5097 104.665 32.5371 104.26 32.3976C103.854 32.2581 103.521 31.9632 103.332 31.5778L100.817 26.3859C99.0724 25.8991 97.2367 25.8331 95.4613 26.1933C93.5333 26.5641 91.6734 27.2275 89.946 28.1604C87.9257 29.2318 86.0416 30.5421 84.3341 32.0632C84.0404 32.3488 83.648 32.5104 83.2383 32.5145L83.2412 32.5174ZM93.9825 12.4553L87.4993 25.8416C87.79 25.6796 88.0807 25.5175 88.4018 25.3562C90.4186 24.2529 92.5941 23.4685 94.8509 23.031C96.2324 22.7654 97.6438 22.69 99.0458 22.8071L93.9825 12.4553Z" fill="#0066FF"/>
<path fill-rule="evenodd" clip-rule="evenodd" d="M11.7324 2.0003C11.7966 2.0003 11.8617 2.0003 11.9271 2.00508C11.9926 2.00986 12.0556 2.01315 12.1207 2.01882C12.1858 2.0245 12.2492 2.03405 12.3134 2.04361C12.3776 2.05317 12.4418 2.06333 12.5049 2.07618C12.5679 2.08902 12.6318 2.10306 12.6948 2.11919C12.7579 2.13533 12.8197 2.15205 12.8827 2.17057C12.9458 2.18909 13.0064 2.2103 13.0671 2.23031C13.1277 2.25033 13.1886 2.27602 13.2481 2.30052C13.3075 2.32501 13.3676 2.35189 13.4273 2.37967C13.4871 2.40745 13.5438 2.43703 13.6012 2.4672C13.6585 2.49737 13.7144 2.53023 13.7702 2.56309C13.8261 2.59595 13.8799 2.6306 13.9336 2.66674C13.9874 2.70289 14.0409 2.74023 14.0935 2.77876C14.146 2.8173 14.1962 2.85703 14.2464 2.89826C14.2966 2.93948 14.3456 2.981 14.3934 3.02551C14.4412 3.07002 14.489 3.11274 14.5347 3.15964C14.5804 3.20654 14.6243 3.25164 14.6688 3.29943C14.7133 3.34723 14.7539 3.39652 14.796 3.44671C14.8382 3.49689 14.8764 3.54827 14.9155 3.60054C14.9547 3.65282 14.9914 3.7057 15.0275 3.75947C15.0637 3.81324 15.0986 3.8679 15.1315 3.92376C15.1644 3.97962 15.1966 4.03578 15.2271 4.09314C15.2576 4.15049 15.2868 4.20755 15.3146 4.26699C15.3424 4.32644 15.3696 4.38469 15.3941 4.44443C15.4186 4.50418 15.4419 4.56391 15.464 4.62635C15.4861 4.68878 15.5061 4.74882 15.5237 4.81066C15.5414 4.87249 15.5599 4.93552 15.5763 4.99736C15.5927 5.05919 15.6062 5.12462 15.6181 5.18765C15.6301 5.25068 15.6429 5.3149 15.6522 5.37883C15.6614 5.44275 15.6695 5.50728 15.6755 5.5727C15.6814 5.63812 15.6871 5.70114 15.6895 5.76627C15.6919 5.83139 15.694 5.89592 15.694 5.96014V33.9861C15.6944 34.1421 15.6855 34.298 15.6674 34.453C15.649 34.6077 15.6213 34.7613 15.5844 34.9127C15.5482 35.0646 15.503 35.2142 15.449 35.3608C15.3952 35.5072 15.3325 35.6501 15.2612 35.7888C15.2023 35.9044 15.1377 36.017 15.0676 36.1261C14.9974 36.2345 14.9227 36.3409 14.8423 36.4424C14.762 36.544 14.6765 36.642 14.5866 36.7352C14.4968 36.8292 14.4022 36.9184 14.3032 37.0025C14.2048 37.087 14.102 37.166 13.9952 37.2394C13.8893 37.3139 13.7796 37.3828 13.6666 37.4458C13.5534 37.5089 13.4369 37.5671 13.3189 37.6185C13.2001 37.6708 13.0787 37.7168 12.955 37.7562C12.8317 37.797 12.7063 37.8309 12.5792 37.8578C12.4528 37.8856 12.3249 37.9071 12.1963 37.922C12.0669 37.9372 11.9373 37.9465 11.8079 37.9489C11.6786 37.9513 11.549 37.9489 11.4196 37.9372C11.1611 37.9158 10.9051 37.8701 10.6552 37.8007C10.5303 37.7646 10.4078 37.7237 10.2866 37.6759C10.1656 37.6287 10.0472 37.5753 9.93168 37.516L6.15825 35.5905C6.07759 35.5496 5.99813 35.5054 5.92136 35.4588C5.84459 35.4122 5.76722 35.3632 5.69254 35.3094C5.61786 35.2556 5.54557 35.2031 5.47448 35.146C5.40338 35.0889 5.33557 35.0304 5.26896 34.9686C5.20234 34.9067 5.13842 34.8425 5.07539 34.7771C5.01236 34.7117 4.95381 34.643 4.89616 34.5731C4.83851 34.5032 4.78413 34.4306 4.73156 34.3559C4.67898 34.2812 4.6291 34.2065 4.5822 34.1295C4.5353 34.0524 4.4902 33.9732 4.44927 33.8929C4.40835 33.8125 4.36772 33.7307 4.33158 33.6476C4.29543 33.5646 4.26138 33.4797 4.23121 33.3946C4.20103 33.3095 4.17146 33.2228 4.14816 33.1353C4.12486 33.0478 4.10156 32.9594 4.08304 32.8707C4.06452 32.7819 4.04899 32.6932 4.03734 32.6033C4.02569 32.5134 4.01523 32.4226 4.00925 32.3326C4.00328 32.2427 4 32.1507 4 32.0608V7.84865C4 7.75903 4.00238 7.66673 4.00925 7.57562C4.01612 7.48451 4.0245 7.39369 4.03734 7.30259C4.05018 7.21148 4.06541 7.12186 4.08513 7.03374C4.10484 6.94562 4.12486 6.85451 4.15055 6.76758C4.17624 6.68065 4.20312 6.59253 4.23449 6.5062C4.26585 6.41987 4.29992 6.33473 4.33606 6.25169C4.37221 6.16864 4.41313 6.08619 4.45555 6.00434C4.49796 5.9225 4.54516 5.84453 4.59206 5.76537C4.63896 5.68621 4.69004 5.61153 4.74351 5.53804C4.79698 5.46456 4.85344 5.39107 4.91169 5.32087C4.96994 5.25067 5.03118 5.18197 5.09361 5.11565C5.15604 5.04933 5.22206 4.98601 5.28987 4.92417C5.35768 4.86234 5.42638 4.80289 5.49897 4.74673C5.57156 4.69058 5.64475 4.63472 5.71943 4.58334C5.79411 4.53196 5.87238 4.48207 5.95064 4.43636C6.02891 4.39066 6.11045 4.34675 6.192 4.30463L9.96454 2.41761C10.102 2.34986 10.243 2.28953 10.3869 2.23688C10.5309 2.18457 10.6778 2.14089 10.8269 2.10605C10.9758 2.07093 11.1267 2.0445 11.2786 2.02688C11.4308 2.00914 11.5839 2.00017 11.7372 2L11.7324 2.0003ZM11.7324 2.37728C11.4549 2.37764 11.1785 2.41012 10.9085 2.47407C10.7737 2.50562 10.6409 2.54492 10.5106 2.59177C10.3805 2.63949 10.2531 2.69444 10.1291 2.75636L6.3554 4.64338C6.28192 4.67952 6.20933 4.71925 6.13824 4.76107C6.06714 4.8029 5.99694 4.8474 5.92913 4.8943C5.86132 4.9412 5.795 4.99108 5.72958 5.04366C5.66416 5.09623 5.60233 5.14851 5.54169 5.20467C5.48105 5.26083 5.4222 5.31789 5.36425 5.37733C5.3063 5.43678 5.25223 5.49981 5.19996 5.56284C5.14768 5.62587 5.096 5.69218 5.0482 5.7588C5.00041 5.82541 4.95351 5.89531 4.91049 5.96551C4.86748 6.03571 4.82536 6.1077 4.78682 6.18119C4.74829 6.25468 4.71334 6.32816 4.67929 6.40404C4.64523 6.47991 4.61536 6.55698 4.58728 6.63524C4.5592 6.71351 4.53351 6.79147 4.5114 6.87093C4.4893 6.95039 4.46929 7.03075 4.45166 7.10991C4.43404 7.18907 4.41999 7.27211 4.40834 7.35516C4.39669 7.4382 4.38863 7.51856 4.38265 7.60131C4.37668 7.68405 4.37459 7.7671 4.37459 7.84865V32.0626C4.37459 32.1442 4.37698 32.226 4.38265 32.3076C4.38833 32.3891 4.39669 32.4722 4.40834 32.5525C4.41999 32.6329 4.43404 32.7147 4.45047 32.7954C4.4669 32.876 4.48661 32.9552 4.51021 33.0344C4.53381 33.1135 4.558 33.1918 4.58489 33.2688C4.61177 33.3459 4.64464 33.4227 4.67451 33.4974C4.70438 33.572 4.74321 33.6467 4.78055 33.7193C4.81789 33.7919 4.85882 33.8639 4.90213 33.9338C4.94545 34.0037 4.99175 34.0727 5.03745 34.1393C5.08316 34.2059 5.13543 34.271 5.18681 34.3341C5.23819 34.3971 5.29286 34.4601 5.34902 34.5196C5.40518 34.579 5.46313 34.6376 5.52377 34.6922C5.58441 34.7469 5.64535 34.8022 5.70957 34.8533C5.7738 34.9043 5.83892 34.9548 5.90673 35.0026C5.97454 35.0504 6.04324 35.0922 6.11314 35.1367C6.18304 35.1813 6.25564 35.2183 6.32793 35.2562L10.1029 37.1806C10.2077 37.2341 10.3152 37.2818 10.4237 37.3252C10.5329 37.3681 10.6443 37.4055 10.7573 37.4372C10.8706 37.4697 10.985 37.4969 11.1006 37.5166C11.2159 37.5376 11.3323 37.5528 11.4492 37.562C11.566 37.5713 11.6828 37.5749 11.8005 37.5725C11.9182 37.5701 12.035 37.562 12.1518 37.548C12.2682 37.534 12.3839 37.514 12.4983 37.4883C12.613 37.4643 12.7263 37.4344 12.8379 37.3987C12.95 37.3625 13.0596 37.3204 13.1665 37.2738C13.2735 37.2272 13.3789 37.1746 13.4817 37.1175C13.5844 37.0605 13.6836 36.9981 13.7804 36.9309C13.8772 36.8636 13.9695 36.7919 14.0582 36.7161C14.1469 36.6402 14.2333 36.5587 14.3148 36.4744C14.3964 36.3903 14.4736 36.3019 14.546 36.2097C14.6191 36.1177 14.6872 36.0219 14.75 35.9227C14.8131 35.8244 14.8713 35.7219 14.9251 35.618C14.9893 35.4919 15.0462 35.3623 15.0954 35.2296C15.1446 35.0974 15.1856 34.9622 15.2181 34.8249C15.2506 34.6878 15.2755 34.5491 15.2928 34.4094C15.309 34.2691 15.3172 34.1281 15.3173 33.987V5.96103C15.3173 5.90129 15.3173 5.84423 15.3125 5.78598C15.3078 5.72773 15.3057 5.66799 15.2997 5.60974C15.2937 5.55149 15.2868 5.49294 15.2788 5.43588C15.2707 5.37883 15.26 5.31908 15.2489 5.26203C15.2378 5.20497 15.2244 5.14762 15.2104 5.09056C15.1963 5.03351 15.1805 4.97735 15.1638 4.92119C15.147 4.86503 15.1276 4.80917 15.1079 4.7545C15.0882 4.69984 15.067 4.64368 15.0449 4.58991C15.0228 4.53614 14.9992 4.48147 14.9735 4.4289C14.9478 4.37632 14.9221 4.32374 14.8943 4.27117C14.8665 4.21859 14.8382 4.16871 14.808 4.11853C14.7778 4.06834 14.7462 4.01935 14.7133 3.96917C14.6804 3.91898 14.647 3.87208 14.6117 3.82428C14.5765 3.77649 14.5418 3.73108 14.5045 3.68657C14.4671 3.64206 14.4286 3.59696 14.3889 3.55246C14.3492 3.50795 14.3097 3.46731 14.2676 3.42519C14.2255 3.38307 14.1837 3.34365 14.1404 3.30392C14.097 3.26419 14.0528 3.22684 14.0074 3.1895C13.962 3.15216 13.9151 3.11602 13.8685 3.08107C13.8219 3.04612 13.7741 3.01237 13.7251 2.97951C13.6761 2.94665 13.626 2.91528 13.5758 2.88511C13.5256 2.85494 13.4742 2.82537 13.4228 2.79878C13.3714 2.7722 13.3189 2.74501 13.2654 2.71932C13.2119 2.69363 13.1591 2.67033 13.1053 2.64823C13.0515 2.62612 12.9957 2.60491 12.941 2.5852C12.8863 2.56548 12.8302 2.54666 12.774 2.53023C12.7178 2.5138 12.6608 2.49767 12.6037 2.48244C12.5467 2.4672 12.4905 2.45555 12.4323 2.4439C12.374 2.43225 12.3167 2.42299 12.2593 2.41403C12.202 2.40507 12.1428 2.3976 12.0843 2.39162C12.0257 2.38565 11.9678 2.38236 11.9095 2.37878C11.8513 2.37519 11.7915 2.3743 11.7333 2.3743L11.7324 2.37728ZM7.95863 7.84865L11.7324 5.96193V33.9879L7.95863 32.0626V7.84865Z" fill="#0066FF"/>
</svg>
