<svg width="110" height="40" viewBox="0 0 110 40" fill="none" xmlns="http://www.w3.org/2000/svg">
<path d="M24.8282 32.5186C24.401 32.5175 23.9915 32.3472 23.6893 32.0451C23.3872 31.743 23.217 31.3335 23.2158 30.9062V8.78038C23.2222 8.35445 23.394 7.94769 23.6949 7.64621C23.9959 7.34472 24.4023 7.17217 24.8282 7.16504C25.2558 7.16696 25.6653 7.33784 25.9673 7.64044C26.2694 7.94305 26.4395 8.35282 26.4407 8.78038V30.9062C26.4425 31.1185 26.4021 31.3289 26.3217 31.5254C26.2413 31.7219 26.1226 31.9004 25.9725 32.0505C25.8224 32.2006 25.6439 32.3193 25.4475 32.3996C25.251 32.48 25.0405 32.5205 24.8282 32.5186Z" fill="white"/>
<path d="M44.6983 33.0666C42.9238 33.0687 41.1678 32.7064 39.539 32.0021C37.9613 31.3357 36.5265 30.3721 35.3128 29.1638C34.1161 27.9531 33.1536 26.5317 32.4738 24.971C31.7971 23.3685 31.4468 21.6472 31.4434 19.9077C31.4387 18.1526 31.8013 16.416 32.508 14.8095C33.1863 13.2506 34.1608 11.8383 35.3775 10.6509C36.5905 9.44266 38.0245 8.47904 39.6015 7.81259C41.2481 7.12986 43.0132 6.77872 44.7956 6.7793C47.3692 6.78593 49.8829 7.55585 52.0187 8.99163C54.1545 10.4274 55.8164 12.4645 56.7941 14.8451C57.4628 16.4492 57.8026 18.1713 57.7932 19.9092C57.802 23.3705 56.4468 26.6959 54.0212 29.1652C52.8071 30.406 51.3564 31.3905 49.7551 32.0606C48.1537 32.7308 46.4342 33.0728 44.6983 33.0666ZM44.7949 10.0042C43.4455 10.0021 42.1088 10.2653 40.8608 10.7788C39.6543 11.2811 38.558 12.0151 37.6338 12.9391C36.701 13.8308 35.9652 14.9078 35.4734 16.1008C34.9325 17.2965 34.6576 18.5954 34.6676 19.9077C34.6673 21.2058 34.9269 22.4909 35.4309 23.6872C35.935 24.8835 36.6733 25.9668 37.6025 26.8734C38.7466 28.0445 40.1634 28.9136 41.7259 29.4028C43.2884 29.8919 44.9478 29.9859 46.5555 29.6763C48.1632 29.3667 49.6691 28.6631 50.9381 27.6287C52.2072 26.5942 53.1998 25.2611 53.8272 23.7488C54.3135 22.5277 54.565 21.2257 54.5683 19.9113C54.5868 17.3093 53.5778 14.8051 51.7606 12.9428C50.8584 12.0078 49.776 11.2656 48.5787 10.7611C47.3814 10.2566 46.0941 10.0003 44.7949 10.0078V10.0042Z" fill="white"/>
<path d="M79.5309 7.16504H62.1451C61.7171 7.16504 61.3066 7.33508 61.0039 7.63774C60.7012 7.9404 60.5312 8.35089 60.5312 8.77892C60.5312 9.20695 60.7012 9.61746 61.0039 9.92012C61.3066 10.2228 61.7171 10.3929 62.1451 10.3929H69.2415V30.9062C69.2397 31.1185 69.2802 31.3289 69.3605 31.5254C69.4409 31.7219 69.5596 31.9004 69.7097 32.0505C69.8598 32.2006 70.0383 32.3193 70.2348 32.3996C70.4312 32.48 70.6417 32.5205 70.854 32.5186C71.2812 32.5175 71.6906 32.3472 71.9926 32.045C72.2947 31.7429 72.4648 31.3334 72.4658 30.9062V10.395H79.5309C79.9589 10.395 80.3695 10.225 80.6721 9.92229C80.9748 9.61963 81.1449 9.20914 81.1449 8.78111C81.1449 8.35308 80.9748 7.94257 80.6721 7.63991C80.3695 7.33725 79.9589 7.16722 79.5309 7.16722V7.16504Z" fill="white"/>
<path d="M83.2408 32.5171C82.8913 32.5193 82.5509 32.4057 82.2729 32.1938C81.9698 31.971 81.755 31.6486 81.6662 31.2831C81.5775 30.9176 81.6204 30.5324 81.7875 30.1954L92.5288 8.06824C92.6653 7.79895 92.8729 7.57213 93.129 7.4124C93.3852 7.25267 93.6802 7.16611 93.9821 7.16211C94.285 7.16165 94.5818 7.24638 94.8388 7.40661C95.0958 7.56684 95.3025 7.79611 95.4354 8.06824L106.239 30.1585C106.427 30.5439 106.454 30.9883 106.315 31.3939C106.176 31.7995 105.881 32.133 105.495 32.3212C105.11 32.5094 104.665 32.5368 104.26 32.3973C103.854 32.2578 103.521 31.963 103.332 31.5776L100.817 26.3857C99.072 25.8989 97.2363 25.8329 95.4609 26.1931C93.5329 26.5639 91.673 27.2273 89.9456 28.1602C87.9253 29.2316 86.0412 30.5419 84.3337 32.063C84.04 32.3486 83.6476 32.5101 83.2379 32.5142L83.2408 32.5171ZM93.9821 12.4551L87.4989 25.8414C87.7896 25.6794 88.0803 25.5172 88.4014 25.3559C90.4182 24.2526 92.5937 23.4683 94.8505 23.0308C96.232 22.7652 97.6434 22.6898 99.0454 22.8069L93.9821 12.4551Z" fill="white"/>
<path fill-rule="evenodd" clip-rule="evenodd" d="M11.7324 2.0003C11.7966 2.0003 11.8617 2.0003 11.9271 2.00508C11.9926 2.00986 12.0556 2.01315 12.1207 2.01882C12.1858 2.0245 12.2492 2.03405 12.3134 2.04361C12.3776 2.05317 12.4418 2.06333 12.5049 2.07618C12.5679 2.08902 12.6318 2.10306 12.6948 2.11919C12.7579 2.13533 12.8197 2.15205 12.8827 2.17057C12.9458 2.18909 13.0064 2.2103 13.0671 2.23031C13.1277 2.25033 13.1886 2.27602 13.2481 2.30052C13.3075 2.32501 13.3676 2.35189 13.4273 2.37967C13.4871 2.40745 13.5438 2.43703 13.6012 2.4672C13.6585 2.49737 13.7144 2.53023 13.7702 2.56309C13.8261 2.59595 13.8799 2.6306 13.9336 2.66674C13.9874 2.70289 14.0409 2.74023 14.0935 2.77876C14.146 2.8173 14.1962 2.85703 14.2464 2.89826C14.2966 2.93948 14.3456 2.981 14.3934 3.02551C14.4412 3.07002 14.489 3.11274 14.5347 3.15964C14.5804 3.20654 14.6243 3.25164 14.6688 3.29943C14.7133 3.34723 14.7539 3.39652 14.796 3.44671C14.8382 3.49689 14.8764 3.54827 14.9155 3.60054C14.9547 3.65282 14.9914 3.7057 15.0275 3.75947C15.0637 3.81324 15.0986 3.8679 15.1315 3.92376C15.1644 3.97962 15.1966 4.03578 15.2271 4.09314C15.2576 4.15049 15.2868 4.20755 15.3146 4.26699C15.3424 4.32644 15.3696 4.38469 15.3941 4.44443C15.4186 4.50418 15.4419 4.56391 15.464 4.62635C15.4861 4.68878 15.5061 4.74882 15.5237 4.81066C15.5414 4.87249 15.5599 4.93552 15.5763 4.99736C15.5927 5.05919 15.6062 5.12462 15.6181 5.18765C15.6301 5.25068 15.6429 5.3149 15.6522 5.37883C15.6614 5.44275 15.6695 5.50728 15.6755 5.5727C15.6814 5.63812 15.6871 5.70114 15.6895 5.76627C15.6919 5.83139 15.694 5.89592 15.694 5.96014V33.9861C15.6944 34.1421 15.6855 34.298 15.6674 34.453C15.649 34.6077 15.6213 34.7613 15.5844 34.9127C15.5482 35.0646 15.503 35.2142 15.449 35.3608C15.3952 35.5072 15.3325 35.6501 15.2612 35.7888C15.2023 35.9044 15.1377 36.017 15.0676 36.1261C14.9974 36.2345 14.9227 36.3409 14.8423 36.4424C14.762 36.544 14.6765 36.642 14.5866 36.7352C14.4968 36.8292 14.4022 36.9184 14.3032 37.0025C14.2048 37.087 14.102 37.166 13.9952 37.2394C13.8893 37.3139 13.7796 37.3828 13.6666 37.4458C13.5534 37.5089 13.4369 37.5671 13.3189 37.6185C13.2001 37.6708 13.0787 37.7168 12.955 37.7562C12.8317 37.797 12.7063 37.8309 12.5792 37.8578C12.4528 37.8856 12.3249 37.9071 12.1963 37.922C12.0669 37.9372 11.9373 37.9465 11.8079 37.9489C11.6786 37.9513 11.549 37.9489 11.4196 37.9372C11.1611 37.9158 10.9051 37.8701 10.6552 37.8007C10.5303 37.7646 10.4078 37.7237 10.2866 37.6759C10.1656 37.6287 10.0472 37.5753 9.93168 37.516L6.15825 35.5905C6.07759 35.5496 5.99813 35.5054 5.92136 35.4588C5.84459 35.4122 5.76722 35.3632 5.69254 35.3094C5.61786 35.2556 5.54557 35.2031 5.47448 35.146C5.40338 35.0889 5.33557 35.0304 5.26896 34.9686C5.20234 34.9067 5.13842 34.8425 5.07539 34.7771C5.01236 34.7117 4.95381 34.643 4.89616 34.5731C4.83851 34.5032 4.78413 34.4306 4.73156 34.3559C4.67898 34.2812 4.6291 34.2065 4.5822 34.1295C4.5353 34.0524 4.4902 33.9732 4.44927 33.8929C4.40835 33.8125 4.36772 33.7307 4.33158 33.6476C4.29543 33.5646 4.26138 33.4797 4.23121 33.3946C4.20103 33.3095 4.17146 33.2228 4.14816 33.1353C4.12486 33.0478 4.10156 32.9594 4.08304 32.8707C4.06452 32.7819 4.04899 32.6932 4.03734 32.6033C4.02569 32.5134 4.01523 32.4226 4.00925 32.3326C4.00328 32.2427 4 32.1507 4 32.0608V7.84865C4 7.75903 4.00238 7.66673 4.00925 7.57562C4.01612 7.48451 4.0245 7.39369 4.03734 7.30259C4.05018 7.21148 4.06541 7.12186 4.08513 7.03374C4.10484 6.94562 4.12486 6.85451 4.15055 6.76758C4.17624 6.68065 4.20312 6.59253 4.23449 6.5062C4.26585 6.41987 4.29992 6.33473 4.33606 6.25169C4.37221 6.16864 4.41313 6.08619 4.45555 6.00434C4.49796 5.9225 4.54516 5.84453 4.59206 5.76537C4.63896 5.68621 4.69004 5.61153 4.74351 5.53804C4.79698 5.46456 4.85344 5.39107 4.91169 5.32087C4.96994 5.25067 5.03118 5.18197 5.09361 5.11565C5.15604 5.04933 5.22206 4.98601 5.28987 4.92417C5.35768 4.86234 5.42638 4.80289 5.49897 4.74673C5.57156 4.69058 5.64475 4.63472 5.71943 4.58334C5.79411 4.53196 5.87238 4.48207 5.95064 4.43636C6.02891 4.39066 6.11045 4.34675 6.192 4.30463L9.96454 2.41761C10.102 2.34986 10.243 2.28953 10.3869 2.23688C10.5309 2.18457 10.6778 2.14089 10.8269 2.10605C10.9758 2.07093 11.1267 2.0445 11.2786 2.02688C11.4308 2.00914 11.5839 2.00017 11.7372 2L11.7324 2.0003ZM11.7324 2.37728C11.4549 2.37764 11.1785 2.41012 10.9085 2.47407C10.7737 2.50562 10.6409 2.54492 10.5106 2.59177C10.3805 2.63949 10.2531 2.69444 10.1291 2.75636L6.3554 4.64338C6.28192 4.67952 6.20933 4.71925 6.13824 4.76107C6.06714 4.8029 5.99694 4.8474 5.92913 4.8943C5.86132 4.9412 5.795 4.99108 5.72958 5.04366C5.66416 5.09623 5.60233 5.14851 5.54169 5.20467C5.48105 5.26083 5.4222 5.31789 5.36425 5.37733C5.3063 5.43678 5.25223 5.49981 5.19996 5.56284C5.14768 5.62587 5.096 5.69218 5.0482 5.7588C5.00041 5.82541 4.95351 5.89531 4.91049 5.96551C4.86748 6.03571 4.82536 6.1077 4.78682 6.18119C4.74829 6.25468 4.71334 6.32816 4.67929 6.40404C4.64523 6.47991 4.61536 6.55698 4.58728 6.63524C4.5592 6.71351 4.53351 6.79147 4.5114 6.87093C4.4893 6.95039 4.46929 7.03075 4.45166 7.10991C4.43404 7.18907 4.41999 7.27211 4.40834 7.35516C4.39669 7.4382 4.38863 7.51856 4.38265 7.60131C4.37668 7.68405 4.37459 7.7671 4.37459 7.84865V32.0626C4.37459 32.1442 4.37698 32.226 4.38265 32.3076C4.38833 32.3891 4.39669 32.4722 4.40834 32.5525C4.41999 32.6329 4.43404 32.7147 4.45047 32.7954C4.4669 32.876 4.48661 32.9552 4.51021 33.0344C4.53381 33.1135 4.558 33.1918 4.58489 33.2688C4.61177 33.3459 4.64464 33.4227 4.67451 33.4974C4.70438 33.572 4.74321 33.6467 4.78055 33.7193C4.81789 33.7919 4.85882 33.8639 4.90213 33.9338C4.94545 34.0037 4.99175 34.0727 5.03745 34.1393C5.08316 34.2059 5.13543 34.271 5.18681 34.3341C5.23819 34.3971 5.29286 34.4601 5.34902 34.5196C5.40518 34.579 5.46313 34.6376 5.52377 34.6922C5.58441 34.7469 5.64535 34.8022 5.70957 34.8533C5.7738 34.9043 5.83892 34.9548 5.90673 35.0026C5.97454 35.0504 6.04324 35.0922 6.11314 35.1367C6.18304 35.1813 6.25564 35.2183 6.32793 35.2562L10.1029 37.1806C10.2077 37.2341 10.3152 37.2818 10.4237 37.3252C10.5329 37.3681 10.6443 37.4055 10.7573 37.4372C10.8706 37.4697 10.985 37.4969 11.1006 37.5166C11.2159 37.5376 11.3323 37.5528 11.4492 37.562C11.566 37.5713 11.6828 37.5749 11.8005 37.5725C11.9182 37.5701 12.035 37.562 12.1518 37.548C12.2682 37.534 12.3839 37.514 12.4983 37.4883C12.613 37.4643 12.7263 37.4344 12.8379 37.3987C12.95 37.3625 13.0596 37.3204 13.1665 37.2738C13.2735 37.2272 13.3789 37.1746 13.4817 37.1175C13.5844 37.0605 13.6836 36.9981 13.7804 36.9309C13.8772 36.8636 13.9695 36.7919 14.0582 36.7161C14.1469 36.6402 14.2333 36.5587 14.3148 36.4744C14.3964 36.3903 14.4736 36.3019 14.546 36.2097C14.6191 36.1177 14.6872 36.0219 14.75 35.9227C14.8131 35.8244 14.8713 35.7219 14.9251 35.618C14.9893 35.4919 15.0462 35.3623 15.0954 35.2296C15.1446 35.0974 15.1856 34.9622 15.2181 34.8249C15.2506 34.6878 15.2755 34.5491 15.2928 34.4094C15.309 34.2691 15.3172 34.1281 15.3173 33.987V5.96103C15.3173 5.90129 15.3173 5.84423 15.3125 5.78598C15.3078 5.72773 15.3057 5.66799 15.2997 5.60974C15.2937 5.55149 15.2868 5.49294 15.2788 5.43588C15.2707 5.37883 15.26 5.31908 15.2489 5.26203C15.2378 5.20497 15.2244 5.14762 15.2104 5.09056C15.1963 5.03351 15.1805 4.97735 15.1638 4.92119C15.147 4.86503 15.1276 4.80917 15.1079 4.7545C15.0882 4.69984 15.067 4.64368 15.0449 4.58991C15.0228 4.53614 14.9992 4.48147 14.9735 4.4289C14.9478 4.37632 14.9221 4.32374 14.8943 4.27117C14.8665 4.21859 14.8382 4.16871 14.808 4.11853C14.7778 4.06834 14.7462 4.01935 14.7133 3.96917C14.6804 3.91898 14.647 3.87208 14.6117 3.82428C14.5765 3.77649 14.5418 3.73108 14.5045 3.68657C14.4671 3.64206 14.4286 3.59696 14.3889 3.55246C14.3492 3.50795 14.3097 3.46731 14.2676 3.42519C14.2255 3.38307 14.1837 3.34365 14.1404 3.30392C14.097 3.26419 14.0528 3.22684 14.0074 3.1895C13.962 3.15216 13.9151 3.11602 13.8685 3.08107C13.8219 3.04612 13.7741 3.01237 13.7251 2.97951C13.6761 2.94665 13.626 2.91528 13.5758 2.88511C13.5256 2.85494 13.4742 2.82537 13.4228 2.79878C13.3714 2.7722 13.3189 2.74501 13.2654 2.71932C13.2119 2.69363 13.1591 2.67033 13.1053 2.64823C13.0515 2.62612 12.9957 2.60491 12.941 2.5852C12.8863 2.56548 12.8302 2.54666 12.774 2.53023C12.7178 2.5138 12.6608 2.49767 12.6037 2.48244C12.5467 2.4672 12.4905 2.45555 12.4323 2.4439C12.374 2.43225 12.3167 2.42299 12.2593 2.41403C12.202 2.40507 12.1428 2.3976 12.0843 2.39162C12.0257 2.38565 11.9678 2.38236 11.9095 2.37878C11.8513 2.37519 11.7915 2.3743 11.7333 2.3743L11.7324 2.37728ZM7.95863 7.84865L11.7324 5.96193V33.9879L7.95863 32.0626V7.84865Z" fill="white"/>
</svg>
